<?xml version="1.0" standalone="no"?>
<!DOCTYPE svg PUBLIC "-//W3C//DTD SVG 20010904//EN"
 "http://www.w3.org/TR/2001/REC-SVG-20010904/DTD/svg10.dtd">
<svg version="1.0" xmlns="http://www.w3.org/2000/svg"
 width="155.000000pt" height="155.000000pt" viewBox="0 0 155.000000 155.000000"
 preserveAspectRatio="xMidYMid meet">

<g transform="translate(0.000000,155.000000) scale(0.100000,-0.100000)"
fill="#5f3128" stroke="none">
<path d="M777 1431 c-3 -27 -17 -58 -36 -82 -17 -21 -40 -59 -51 -84 -17 -39
-18 -53 -9 -96 10 -47 16 -54 84 -104 95 -71 108 -103 58 -150 -66 -61 -163
-6 -163 92 0 38 -36 90 -72 102 -46 16 -48 15 -48 -29 0 -32 -7 -48 -35 -79
-55 -61 -67 -97 -50 -160 7 -29 19 -59 27 -68 44 -54 289 -203 333 -203 24 0
112 47 181 96 100 71 160 144 185 226 45 149 -8 250 -177 333 -100 50 -138 84
-160 145 -10 27 -27 62 -39 76 l-22 27 -6 -42z"/>
<path d="M930 1439 c-14 -25 11 -69 39 -69 33 0 42 54 14 76 -25 19 -41 17
-53 -7z"/>
<path d="M518 1325 c-12 -16 -18 -42 -18 -80 l0 -56 28 21 c36 28 65 90 50
108 -24 29 -43 31 -60 7z"/>
<path d="M297 636 c-94 -26 -172 -102 -198 -194 -18 -66 -7 -172 24 -225 113
-193 394 -191 502 4 27 48 30 63 30 139 0 69 -5 93 -23 127 -65 123 -206 186
-335 149z m101 -68 c7 -7 12 -44 12 -95 l0 -83 74 0 c90 0 106 -5 106 -35 0
-30 -16 -35 -106 -35 l-74 0 0 -83 c0 -85 -8 -107 -41 -107 -24 0 -29 20 -29
110 l0 79 -92 3 c-89 3 -93 4 -96 27 -5 34 12 41 106 41 l82 0 0 83 c0 80 9
107 35 107 6 0 16 -5 23 -12z"/>
<path d="M1220 624 c-60 -25 -411 -163 -472 -185 l-38 -13 0 -82 0 -81 55 15
54 15 103 -43 c57 -23 139 -55 183 -70 44 -16 103 -38 132 -51 64 -28 96 -18
119 37 14 32 13 38 -1 60 -9 14 -24 28 -33 31 -9 3 -62 24 -117 45 -177 71
-163 67 -212 51 -24 -9 -47 -13 -50 -9 -3 3 0 7 8 10 116 34 390 151 401 171
14 23 1 82 -23 106 -24 24 -40 23 -109 -7z"/>
<path d="M696 485 c7 -17 20 -20 28 -6 3 5 -1 12 -10 15 -22 9 -24 8 -18 -9z"/>
</g>
</svg>
